<?xml version="1.0" encoding="utf-8"?>
<!-- Generator: Adobe Illustrator 22.0.0, SVG Export Plug-In . SVG Version: 6.00 Build 0)  -->
<svg version="1.1" xmlns="http://www.w3.org/2000/svg" xmlns:xlink="http://www.w3.org/1999/xlink" x="0px" y="0px"
	 viewBox="0 0 591.8 724.9" style="enable-background:new 0 0 591.8 724.9;" xml:space="preserve">
<style type="text/css">
	.st0{fill:none;stroke:#FFFFFF;stroke-width:12;stroke-miterlimit:10;}
</style>
<g id="Layer_1">
	<path class="st0" d="M444.2,36.2v56.2l-75.3-3.8V22.1c0-5.2-4.2-9.4-9.4-9.4H234.3c-6,0-10.9,4.9-10.9,10.9v65l-75.8,3.8V36.2
		c0-3.7-3.2-6.6-6.8-6.3l-98.5,8.5c-9.1,0-16.5,7.4-16.5,16.5l0,490.5c0,9.9,5.3,19,13.9,23.9l249.2,141.4
		c9.5,5.4,21.2,5.2,30.5-0.4l233.3-140.9c8.2-5,13.3-13.9,13.3-23.5v-491c0-9.1-7.4-16.5-16.5-16.5L451,29.9
		C447.4,29.6,444.2,32.5,444.2,36.2z"/>
</g>
<g id="Layer_2">
	<path class="st0" d="M515.6,317.5L221.1,497.8l86.8,50.1l98.1-59.2v-37.2l109.6-69.1l0.1,139.5c0,5.7-3,11-7.8,14L319.1,651.4
		c-8,4.9-18,5.1-26.1,0.5L84.6,534.4c-5.2-2.9-8.3-8.4-8.3-14.3v-34.8c0-3.6,1.9-7,5-8.9L374,297.2H186.4l-0.1,45.7L76.7,412
		L76.8,228h-0.1v-49.5c0-8.1,6.6-14.7,14.7-14.7l85.5-2.6c1.6,0,2.9,1.2,2.9,2.8v42c0,2.4,2,4.4,4.4,4.4h53.5c2.4,0,4.4-2,4.4-4.4
		v-53.3c0-2.3,1.9-4.2,4.2-4.2H346c2.3,0,4.2,1.9,4.2,4.2V206c0,2.4,2,4.4,4.4,4.4h53.6c2.4,0,4.4-2,4.4-4.4v-41.8
		c0-1.6,1.3-2.8,2.9-2.8l85.5,2.6c8.1,0,14.7,6.6,14.7,14.7v31.7h0V317.5z"/>
</g>
</svg>
