<?xml version="1.0" encoding="utf-8"?>
<!-- Generator: Adobe Illustrator 22.0.0, SVG Export Plug-In . SVG Version: 6.00 Build 0)  -->
<svg version="1.1" id="Layer_1" xmlns="http://www.w3.org/2000/svg" xmlns:xlink="http://www.w3.org/1999/xlink" x="0px" y="0px"
	 viewBox="0 0 416.1 424.7" style="enable-background:new 0 0 416.1 424.7;" xml:space="preserve">
<style type="text/css">
	.st0{fill:#FFFFFF;}
	.st1{opacity:0.6;}
</style>
<path class="st0" d="M257,114.8v19.8l-23.6-1.2v-20.9c0-1.6-1.3-3-3-3h-39.3c-1.9,0-3.4,1.5-3.4,3.4v20.4l-23.8,1.2v-19.8l-33.1,2.9
	c-2.9,0-5.2,2.3-5.2,5.2l0,154c0,3.1,1.7,6,4.4,7.5l78.2,44.4c3,1.7,6.7,1.6,9.6-0.1l73.2-44.2c2.6-1.6,4.2-4.4,4.2-7.4V122.8
	c0-2.9-2.3-5.2-5.2-5.2L257,114.8z M279.4,205.2l-92.5,56.6l27.3,15.7l30.8-18.6v-11.7l34.4-21.7l0,43.8c0,1.8-0.9,3.5-2.5,4.4
	l-59.2,36.3c-2.5,1.5-5.6,1.6-8.2,0.1L144,273.3c-1.6-0.9-2.6-2.6-2.6-4.5v-10.9c0-1.1,0.6-2.2,1.6-2.8l91.9-56.3H176l0,14.4
	l-34.4,21.7l0-57.8h0v-15.5c0-2.6,2.1-4.6,4.6-4.6l26.8-0.8c0.5,0,0.9,0.4,0.9,0.9v13.2c0,0.8,0.6,1.4,1.4,1.4h16.8
	c0.8,0,1.4-0.6,1.4-1.4v-16.7c0-0.7,0.6-1.3,1.3-1.3h31.3c0.7,0,1.3,0.6,1.3,1.3v16.7c0,0.8,0.6,1.4,1.4,1.4h16.8
	c0.8,0,1.4-0.6,1.4-1.4v-13.1c0-0.5,0.4-0.9,0.9-0.9l26.8,0.8c2.6,0,4.6,2.1,4.6,4.6v10h0V205.2z"/>
<g>
	<path class="st0" d="M59.2,273.7l2.4,8.3c1.1,3.8,1.4,6.7,1,8.7c-0.5,2-1.8,3.3-3.9,3.9c-1.4,0.4-2.7,0.4-3.9-0.1
		c-1.1-0.5-2-1.3-2.5-2.5l-0.2,0.1c0.2,1.8-0.1,3.2-0.8,4.2c-0.7,1-1.8,1.8-3.4,2.2c-2.2,0.6-4.2,0.3-5.9-1.1
		c-1.7-1.4-3.1-3.6-3.9-6.6l-2.9-10L59.2,273.7z M47.3,283.4l-6.3,1.8l1.1,3.7c0.5,1.6,1.1,2.6,1.8,3.2c0.8,0.6,1.7,0.7,2.8,0.4
		c2-0.6,2.5-2.5,1.6-5.6L47.3,283.4z M51.3,282.2l1,3.3c0.5,1.5,1,2.6,1.6,3.2c0.6,0.6,1.4,0.7,2.4,0.4c0.9-0.3,1.5-0.8,1.6-1.7
		c0.2-0.9,0-2.1-0.4-3.7l-0.9-3L51.3,282.2z"/>
	<path class="st0" d="M73.3,333.2c-3.5,2.2-6.8,3-9.9,2.3c-3.1-0.7-5.8-2.9-8.1-6.5c-2.3-3.6-3.1-7-2.5-10.1
		c0.6-3.1,2.7-5.8,6.2-8.1c3.5-2.2,6.8-3,9.9-2.2s5.8,2.9,8.1,6.5c2.3,3.6,3.1,7,2.5,10.1C78.8,328.2,76.8,330.9,73.3,333.2z
		 M62.3,316c-2.4,1.5-3.8,3.1-4.4,4.9s-0.2,3.6,1.1,5.6c2.5,4,6.2,4.4,10.9,1.4c4.8-3,5.9-6.5,3.3-10.5c-1.3-2-2.8-3.1-4.7-3.3
		C66.8,313.9,64.7,314.5,62.3,316z"/>
	<path class="st0" d="M86.5,351.4l-6.5,7.1l-4.3-4l17-18.4l6,5.5c2.8,2.6,4.4,4.9,4.9,7.1c0.5,2.1-0.1,4.1-1.8,6
		c-1,1.1-2.2,1.7-3.7,2c-1.4,0.2-3,0-4.6-0.6c-0.7,7-1.2,11.5-1.4,13.6l-4.8-4.5l1.6-11.6L86.5,351.4z M89.4,348.2l1.4,1.3
		c1.4,1.3,2.6,2,3.6,2.2c1,0.2,2-0.2,2.8-1c0.8-0.9,1-1.8,0.7-2.8c-0.3-1-1.2-2.1-2.6-3.4l-1.3-1.2L89.4,348.2z"/>
	<path class="st0" d="M115.5,373.7l-4.8,8.3l-5.1-3l12.6-21.7l7,4.1c3.3,1.9,5.4,3.8,6.3,5.8c1,2,0.8,4.1-0.5,6.2
		c-0.7,1.3-1.8,2.2-3.1,2.7c-1.4,0.5-2.9,0.7-4.7,0.4c0.8,7,1.4,11.5,1.6,13.6l-5.7-3.3l-0.9-11.7L115.5,373.7z M117.7,369.9l1.7,1
		c1.6,0.9,3,1.4,4,1.3c1.1,0,1.9-0.6,2.5-1.6c0.6-1,0.6-2,0.1-2.9s-1.6-1.8-3.3-2.8l-1.6-0.9L117.7,369.9z"/>
	<path class="st0" d="M168.1,392.3c-1.2,4-3.3,6.7-6.1,8.1c-2.8,1.4-6.3,1.5-10.4,0.3c-4.1-1.3-6.9-3.3-8.4-6.1
		c-1.5-2.8-1.7-6.2-0.4-10.2c1.2-4,3.3-6.7,6.1-8.1c2.8-1.4,6.3-1.5,10.4-0.2c4.1,1.3,6.9,3.3,8.4,6.1
		C169.2,385,169.3,388.4,168.1,392.3z M148.7,386.3c-0.8,2.7-0.9,4.9-0.2,6.6c0.7,1.7,2.2,2.9,4.4,3.6c4.5,1.4,7.6-0.6,9.3-5.9
		c1.7-5.4,0.3-8.8-4.2-10.2c-2.2-0.7-4.2-0.6-5.7,0.4C150.7,381.8,149.5,383.6,148.7,386.3z"/>
	<path class="st0" d="M210.5,409.6l-6.7-0.4l-3-13.3c-0.1-0.5-0.3-1.5-0.5-2.9c-0.3-1.5-0.4-2.5-0.4-3c-0.1,0.6-0.4,1.6-0.7,2.9
		c-0.4,1.3-0.7,2.3-0.9,2.9l-4.5,12.9l-6.7-0.4l-5.7-25.4l5.8,0.3l2.8,13.9c0.5,2.6,0.8,4.8,1,6.6c0.1-0.6,0.3-1.6,0.7-3
		c0.4-1.3,0.7-2.4,1-3.1l4.9-13.8l5.6,0.3l3.3,14.2c0.1,0.6,0.3,1.6,0.5,2.9c0.2,1.3,0.3,2.4,0.4,3.4c0.2-0.9,0.4-2,0.8-3.3
		c0.4-1.3,0.7-2.4,0.9-3.2l4.3-13.4l5.8,0.3L210.5,409.6z"/>
	<path class="st0" d="M269.3,393.2c0.6,2.2,0.2,4.1-1.2,5.9c-1.4,1.7-3.7,3-6.8,3.9c-2.9,0.8-5.5,1-8,0.6l-1.3-4.8
		c2,0.2,3.7,0.3,5,0.3c1.3,0,2.5-0.2,3.6-0.5c1.3-0.3,2.2-0.8,2.7-1.4c0.6-0.6,0.7-1.3,0.5-2.2c-0.1-0.5-0.4-0.9-0.8-1.1
		c-0.4-0.3-0.9-0.5-1.6-0.7c-0.7-0.2-2-0.4-3.9-0.7c-1.8-0.2-3.2-0.6-4.2-1c-1-0.4-1.9-1-2.6-1.7c-0.7-0.7-1.2-1.6-1.5-2.8
		c-0.6-2.1-0.2-4,1-5.7c1.3-1.7,3.3-2.9,6.2-3.7c1.4-0.4,2.8-0.6,4.1-0.6c1.4-0.1,2.8,0,4.3,0.2l-0.8,4.5c-1.6-0.1-2.9-0.2-3.9-0.1
		c-1,0-1.9,0.2-2.9,0.4c-1.1,0.3-1.8,0.7-2.3,1.4c-0.5,0.6-0.6,1.3-0.4,2c0.1,0.5,0.3,0.8,0.7,1.1c0.3,0.3,0.8,0.5,1.4,0.7
		c0.6,0.2,2,0.4,4.1,0.7c2.8,0.4,4.8,1,6.1,1.8C268,390.4,268.9,391.6,269.3,393.2z"/>
	<path class="st0" d="M298.7,388.2L283.5,374l-0.2,0.1c2.1,3.4,3.5,5.7,4.1,6.9l5.5,10.3l-4.7,2.5l-11.8-22.1l7.1-3.8l14.9,13.8
		l0.1-0.1l-2.9-20.2l7.1-3.8l11.8,22.1l-4.9,2.6l-5.6-10.4c-0.3-0.5-0.6-1.1-0.9-1.7c-0.3-0.7-1.2-2.4-2.5-5.3l-0.2,0.1l2.9,20.7
		L298.7,388.2z"/>
	<path class="st0" d="M343.6,355.6l-5.5-3l-7.5,6.9l2.6,5.7l-4.7,4.3l-9.9-25.1l5.3-4.9l24.3,11.7L343.6,355.6z M334,350.3
		c-5-2.7-7.9-4.2-8.5-4.6c-0.7-0.4-1.2-0.7-1.5-0.9c0.7,1.4,2.3,4.8,4.7,10.4L334,350.3z"/>
	<path class="st0" d="M354.1,327.8l8,5.3l-3.2,4.9L338,324.3l4.5-6.8c2.1-3.2,4.1-5.2,6.2-6c2-0.8,4.1-0.6,6.2,0.8
		c1.2,0.8,2.1,1.9,2.5,3.3c0.5,1.4,0.5,2.9,0.2,4.7c7-0.4,11.5-0.7,13.6-0.9l-3.6,5.5l-11.7,0.3L354.1,327.8z M350.5,325.5l1-1.6
		c1-1.6,1.5-2.9,1.6-3.9c0-1-0.5-1.9-1.5-2.6c-1-0.6-1.9-0.7-2.9-0.2c-0.9,0.5-1.9,1.5-2.9,3.1l-1,1.5L350.5,325.5z"/>
	<path class="st0" d="M381.6,293.6l-1.9,5.6l-19.5-6.7l-2.5,7.2l-4.2-1.4l6.8-19.9l4.2,1.4l-2.5,7.2L381.6,293.6z"/>
	<path class="st0" d="M383.2,278.1c-0.9-0.2-1.6-0.6-2-1.2c-0.4-0.7-0.5-1.5-0.3-2.6c0.2-1,0.6-1.8,1.2-2.3c0.6-0.5,1.4-0.6,2.3-0.5
		c0.9,0.2,1.5,0.6,1.9,1.2c0.4,0.7,0.5,1.5,0.3,2.5c-0.2,1.1-0.6,1.8-1.2,2.3C384.9,278.1,384.1,278.3,383.2,278.1z"/>
</g>
<g>
	<path class="st0" d="M83,71.2c3,3.1,4.4,6.3,4.1,9.8c-0.3,3.4-2.1,6.9-5.6,10.3l-5.6,5.5L57.7,78l6.2-6c3.2-3.1,6.5-4.8,9.9-4.9
		C77.1,66.9,80.2,68.3,83,71.2z M78.7,75.5c-3.9-4-7.7-4.2-11.5-0.5L65,77.2l11.9,12.1l1.8-1.8C82.7,83.6,82.7,79.6,78.7,75.5z"/>
	<path class="st0" d="M106.3,58.3l5.2,8.5l-5,3.1L92.9,47.7l6.8-4.2c3.2-2,5.9-2.9,8.1-2.7c2.2,0.2,4,1.4,5.4,3.6
		c0.8,1.3,1.1,2.7,1,4.2c-0.1,1.5-0.7,2.9-1.8,4.4c6.6,2.8,10.9,4.6,12.9,5.4l-5.5,3.4L109,56.7L106.3,58.3z M104,54.5l1.6-1
		c1.6-1,2.6-1.9,3-2.9c0.4-1,0.3-2-0.3-3c-0.6-1-1.5-1.6-2.5-1.5c-1,0-2.4,0.5-4,1.5l-1.5,0.9L104,54.5z"/>
	<path class="st0" d="M154.6,46.5L139.7,52l-9-24.4l14.9-5.5l1.6,4.2l-9.4,3.5l2,5.4l8.8-3.2l1.6,4.2l-8.8,3.2l2.3,6.3l9.4-3.5
		L154.6,46.5z"/>
	<path class="st0" d="M188.8,39.2l-2.9-5.8l-9.9,1.6l-1,6.4l-6.2,1l5.6-27.3l7.1-1.1L195,38.2L188.8,39.2z M183.7,29
		c-2.7-5.3-4.2-8.2-4.6-8.9c-0.3-0.7-0.6-1.2-0.8-1.6c-0.2,1.6-0.8,5.5-1.8,11.7L183.7,29z"/>
	<path class="st0" d="M222.2,38.3l-5.1-20.9l-0.2,0c-0.1,4.2-0.2,6.9-0.3,8.3l-0.9,12.1l-5.2-0.4l2-26l7.9,0.6l5,20.4l0.1,0
		l8.4-19.3l7.9,0.6l-2,26l-5.4-0.4l0.9-12.3c0-0.6,0.1-1.2,0.2-2c0.1-0.8,0.3-2.8,0.7-6l-0.2,0l-8.6,19.8L222.2,38.3z"/>
	<path class="st0" d="M281.6,23.9l7.9,3.2c3.6,1.5,6,3,7.3,4.7c1.2,1.6,1.4,3.5,0.6,5.6c-0.6,1.4-1.4,2.5-2.5,3.1
		c-1.1,0.6-2.3,0.8-3.5,0.5l-0.1,0.2c1.5,1,2.4,2.1,2.7,3.3c0.3,1.2,0.2,2.6-0.4,4.2c-0.9,2.2-2.4,3.6-4.6,4.1
		c-2.2,0.5-4.7,0.2-7.6-1l-9.5-3.9L281.6,23.9z M281.4,39.7l-2.6,6.3l3.5,1.4c1.5,0.6,2.7,0.8,3.6,0.5c0.9-0.2,1.6-0.9,2.1-2
		c0.8-2-0.3-3.6-3.3-4.9L281.4,39.7z M283.1,35.6l3.1,1.3c1.5,0.6,2.6,0.8,3.4,0.7c0.8-0.2,1.5-0.7,1.9-1.7c0.4-0.9,0.3-1.7-0.3-2.4
		c-0.6-0.7-1.6-1.4-3.1-2l-2.8-1.2L283.1,35.6z"/>
	<path class="st0" d="M306.2,64.5l14-22l4.9,3.1l-14,22L306.2,64.5z"/>
	<path class="st0" d="M344.4,75.4l8,7.5l-9.2,9.8c-1.7-0.8-3.1-1.7-4.4-2.6c-1.3-0.9-2.5-1.9-3.7-3c-3-2.8-4.6-5.9-4.6-9.1
		c0-3.2,1.5-6.4,4.4-9.5c2.9-3.1,6-4.6,9.5-4.6c3.5,0,6.8,1.6,10.1,4.7c2.1,1.9,3.7,4.2,4.9,6.8l-4.4,1.9c-0.8-2.1-2-3.8-3.6-5.3
		c-1.8-1.7-3.9-2.5-6.1-2.4c-2.2,0.1-4.2,1.2-6.1,3.2c-1.9,2.1-3,4.1-3.1,6c-0.1,1.9,0.7,3.7,2.4,5.3c0.9,0.8,1.9,1.6,3,2.3l3.7-4
		l-3.8-3.6L344.4,75.4z"/>
	<path class="st0" d="M349.5,98.1c0.8-0.6,1.5-0.9,2.3-0.8c0.8,0.1,1.5,0.6,2.2,1.4c0.7,0.8,1,1.6,0.9,2.4c0,0.8-0.4,1.5-1.2,2.1
		c-0.7,0.6-1.5,0.8-2.3,0.7c-0.8-0.1-1.5-0.6-2.2-1.4c-0.7-0.8-1-1.6-0.9-2.4C348.3,99.4,348.7,98.7,349.5,98.1z"/>
</g>
<g class="st1">
	<path class="st0" d="M368.8,195.8H365v-7.4c0-0.9,0-1.7,0.1-2.5c-0.2,0.3-0.5,0.6-0.9,0.9l-1.6,1.3l-2-2.4l4.8-3.9h3.4V195.8z"/>
	<path class="st0" d="M384.1,188.2c0,2.7-0.6,4.7-1.8,5.9c-1.2,1.2-3.1,1.8-5.7,1.8c-0.9,0-1.5,0-1.9-0.1v-3
		c0.5,0.1,1.1,0.2,1.6,0.2c1.3,0,2.4-0.3,3.1-0.8c0.7-0.6,1.1-1.4,1.2-2.6h-0.1c-0.2,0.5-0.5,0.8-0.7,1c-0.2,0.2-0.5,0.4-0.9,0.5
		c-0.4,0.1-0.8,0.2-1.3,0.2c-1.2,0-2.2-0.4-2.8-1.2c-0.7-0.8-1-1.9-1-3.3c0-1.5,0.4-2.8,1.3-3.6c0.9-0.9,2.1-1.3,3.6-1.3
		c1.7,0,3,0.6,4,1.7C383.6,184.5,384.1,186.1,384.1,188.2z M378.8,184.7c-0.4,0-0.7,0.2-1,0.4c-0.3,0.3-0.4,0.8-0.4,1.4
		c0,0.5,0.1,0.9,0.3,1.2c0.2,0.3,0.6,0.5,1,0.5c0.4,0,0.8-0.2,1.1-0.4c0.3-0.3,0.5-0.7,0.5-1.1c0-0.6-0.1-1.1-0.4-1.5
		C379.6,184.9,379.2,184.7,378.8,184.7z"/>
	<path class="st0" d="M397.5,188.2c0,2.7-0.6,4.7-1.8,5.9c-1.2,1.2-3.1,1.8-5.7,1.8c-0.9,0-1.5,0-1.9-0.1v-3
		c0.5,0.1,1.1,0.2,1.6,0.2c1.3,0,2.4-0.3,3.1-0.8s1.1-1.4,1.2-2.6h-0.1c-0.2,0.5-0.5,0.8-0.7,1c-0.2,0.2-0.5,0.4-0.9,0.5
		c-0.4,0.1-0.8,0.2-1.3,0.2c-1.2,0-2.2-0.4-2.8-1.2c-0.7-0.8-1-1.9-1-3.3c0-1.5,0.4-2.8,1.3-3.6c0.9-0.9,2.1-1.3,3.6-1.3
		c1.7,0,3,0.6,4,1.7C397,184.5,397.5,186.1,397.5,188.2z M392.2,184.7c-0.4,0-0.7,0.2-1,0.4c-0.3,0.3-0.4,0.8-0.4,1.4
		c0,0.5,0.1,0.9,0.3,1.2c0.2,0.3,0.6,0.5,1,0.5c0.4,0,0.8-0.2,1.1-0.4c0.3-0.3,0.5-0.7,0.5-1.1c0-0.6-0.1-1.1-0.4-1.5
		C393,184.9,392.6,184.7,392.2,184.7z"/>
	<path class="st0" d="M410.9,188.2c0,2.7-0.6,4.7-1.8,5.9c-1.2,1.2-3.1,1.8-5.7,1.8c-0.9,0-1.5,0-1.9-0.1v-3
		c0.5,0.1,1.1,0.2,1.6,0.2c1.3,0,2.4-0.3,3.1-0.8c0.7-0.6,1.1-1.4,1.2-2.6h-0.1c-0.2,0.5-0.5,0.8-0.7,1c-0.2,0.2-0.5,0.4-0.9,0.5
		c-0.4,0.1-0.8,0.2-1.3,0.2c-1.2,0-2.2-0.4-2.8-1.2c-0.7-0.8-1-1.9-1-3.3c0-1.5,0.4-2.8,1.3-3.6c0.9-0.9,2.1-1.3,3.6-1.3
		c1.7,0,3,0.6,4,1.7C410.4,184.5,410.9,186.1,410.9,188.2z M405.6,184.7c-0.4,0-0.7,0.2-1,0.4c-0.3,0.3-0.4,0.8-0.4,1.4
		c0,0.5,0.1,0.9,0.3,1.2c0.2,0.3,0.6,0.5,1,0.5c0.4,0,0.8-0.2,1.1-0.4c0.3-0.3,0.5-0.7,0.5-1.1c0-0.6-0.1-1.1-0.4-1.5
		C406.4,184.9,406.1,184.7,405.6,184.7z"/>
</g>
<g class="st1">
	<path class="st0" d="M13.5,195.8H5.2v-14h8.3v3H9v2.2h4.2v3H9v2.6h4.5V195.8z"/>
	<path class="st0" d="M29.9,191.5c0,0.9-0.2,1.6-0.7,2.3c-0.4,0.7-1.1,1.2-1.9,1.6c-0.8,0.4-1.8,0.6-2.9,0.6c-0.9,0-1.7-0.1-2.3-0.2
		c-0.6-0.1-1.3-0.4-2-0.7v-3.4c0.7,0.4,1.5,0.7,2.2,0.9c0.8,0.2,1.5,0.3,2.1,0.3c0.6,0,1-0.1,1.2-0.3c0.3-0.2,0.4-0.4,0.4-0.7
		c0-0.2-0.1-0.4-0.2-0.5s-0.3-0.3-0.5-0.4c-0.2-0.1-0.9-0.4-1.9-0.9c-0.9-0.4-1.6-0.8-2-1.2c-0.5-0.4-0.8-0.8-1-1.3
		c-0.2-0.5-0.3-1.1-0.3-1.8c0-1.3,0.5-2.3,1.4-3c0.9-0.7,2.2-1.1,3.9-1.1c1.4,0,2.9,0.3,4.4,1l-1.2,2.9c-1.3-0.6-2.4-0.9-3.4-0.9
		c-0.5,0-0.8,0.1-1.1,0.3c-0.2,0.2-0.3,0.4-0.3,0.6c0,0.3,0.1,0.5,0.4,0.7c0.3,0.2,1.1,0.6,2.3,1.2c1.2,0.5,2,1.1,2.5,1.7
		C29.7,189.8,29.9,190.6,29.9,191.5z"/>
	<path class="st0" d="M43.1,195.8h-3.8v-10.9H36v-3.1h10.6v3.1h-3.4V195.8z"/>
	<path class="st0" d="M52.7,194.2c0-0.6,0.2-1,0.5-1.4c0.3-0.3,0.9-0.5,1.5-0.5c0.6,0,1.1,0.2,1.5,0.5c0.3,0.3,0.5,0.8,0.5,1.4
		c0,0.6-0.2,1-0.5,1.3c-0.3,0.3-0.8,0.5-1.4,0.5c-0.6,0-1.1-0.2-1.5-0.5C52.9,195.2,52.7,194.8,52.7,194.2z"/>
</g>
</svg>
