<?xml version="1.0" encoding="utf-8"?>
<!-- Generator: Adobe Illustrator 22.0.0, SVG Export Plug-In . SVG Version: 6.00 Build 0)  -->
<svg version="1.1" id="Layer_1" xmlns="http://www.w3.org/2000/svg" xmlns:xlink="http://www.w3.org/1999/xlink" x="0px" y="0px"
	 viewBox="0 0 582.8 203.3" style="enable-background:new 0 0 582.8 203.3;" xml:space="preserve">
<style type="text/css">
	.st0{fill:#382580;}
	.st1{opacity:0.5;fill:#382580;}
	.st2{opacity:0.65;}
</style>
<path class="st0" d="M75.2,67.6c-3.1-3.1-6.5-5.4-10.2-6.9c-3.7-1.5-7.4-2.2-11.2-2.2c-3.4,0-6.6,0.6-9.6,1.7
	c-3,1.1-5.8,2.9-8.1,5.2c-2.4,2.3-4.3,5.1-5.7,8.5c-1.4,3.4-2.1,7.2-2.1,11.7c0,4.6,0.7,8.7,2,12.2c1.4,3.6,3.2,6.6,5.5,9
	c2.3,2.5,4.9,4.3,7.9,5.6c3,1.3,6.1,1.9,9.4,1.9c3.8,0,7.6-0.9,11.4-2.6c3.8-1.7,7.4-4.4,10.7-8.1v-2.9c0-1.1,0.2-1.8,0.5-2.1
	c0.3-0.3,1-0.5,2.1-0.5h12.3c1.1,0,1.8,0.2,2.1,0.5c0.3,0.3,0.5,1,0.5,2.1v13.8c0,0.5-0.1,0.9-0.2,1.4c-0.2,0.4-0.3,0.7-0.5,0.9
	c-4.4,6.2-10.1,11.1-17.1,14.6c-7,3.5-14.7,5.2-23.3,5.2c-7.7,0-14.6-1.3-20.8-3.7c-6.2-2.5-11.5-6-15.8-10.4
	c-4.4-4.5-7.7-9.7-10.1-15.8c-2.3-6.1-3.5-12.8-3.5-20.1c0-7,1.2-13.6,3.7-19.7c2.5-6.1,6-11.4,10.5-15.9c4.5-4.5,9.8-8,15.9-10.6
	c6.1-2.6,12.8-3.9,20.1-3.9c8,0,15.5,1.5,22.3,4.5c6.8,3,12.5,7.2,17.1,12.7c0.2,0.2,0.5,0.7,0.9,1.3c0.3,0.6,0.5,1.7,0.5,3.1v12.2
	c0,1.1-0.2,1.8-0.5,2.1c-0.3,0.3-1,0.5-2.1,0.5H77.8c-1.1,0-1.8-0.2-2.1-0.5c-0.3-0.3-0.5-1-0.5-2.1V67.6z"/>
<path class="st0" d="M163.9,118.9c0-1.1,0.2-1.8,0.5-2.1c0.3-0.3,1-0.5,2.1-0.5h2.8l-2.5-7.7h-24.4l-2.2,7.7h2.9
	c1.1,0,1.8,0.2,2.1,0.5c0.3,0.3,0.5,1,0.5,2.1v12.3c0,1.1-0.2,1.8-0.5,2.1c-0.3,0.3-1,0.5-2.1,0.5h-31.9c-1.1,0-1.8-0.2-2.1-0.5
	c-0.3-0.3-0.5-1-0.5-2.1v-12.3c0-1.1,0.2-1.8,0.5-2.1c0.3-0.3,1-0.5,2.1-0.5h3.6l19.9-60.2h-3.3c-1.1,0-1.8-0.2-2.1-0.5
	c-0.3-0.3-0.5-1-0.5-2.1V41.3c0-1.1,0.2-1.8,0.5-2.1c0.3-0.3,1-0.5,2.1-0.5h35.7c1.1,0,1.8,0.2,2.3,0.5c0.4,0.3,0.8,1,1.2,2
	l24.8,75.2h3.7c1.1,0,1.8,0.2,2.1,0.5c0.3,0.3,0.5,1,0.5,2.1v12.3c0,1.1-0.2,1.8-0.5,2.1c-0.3,0.3-1,0.5-2.1,0.5h-32.5
	c-1.1,0-1.8-0.2-2.1-0.5c-0.3-0.3-0.5-1-0.5-2.1V118.9z M161.1,88.9l-5.6-20.3l-1-8.8l-1,8.8l-5.2,20.3H161.1z"/>
<path class="st0" d="M374.3,118.9c0-1.1,0.2-1.8,0.5-2.1c0.3-0.3,1-0.5,2.1-0.5h2.2V56.1h-2.2c-1.1,0-1.8-0.2-2.1-0.5
	c-0.3-0.3-0.5-1-0.5-2.1V41.3c0-1.1,0.2-1.8,0.5-2.1c0.3-0.3,1-0.5,2.1-0.5h26.4c1.1,0,1.8,0.2,2.1,0.5c0.3,0.3,0.5,1,0.5,2.1v72.1
	h30.1l3.7-6.5c0.6-1,1.2-1.5,1.8-1.5c0.3,0,0.9,0.2,1.7,0.6l10.7,6.1c1.1,0.6,1.6,1.2,1.6,1.8c0,0.4-0.2,0.9-0.6,1.6l-9.2,16
	c-0.5,0.9-1,1.5-1.5,1.8c-0.5,0.3-1.3,0.4-2.3,0.4h-65c-1.1,0-1.8-0.2-2.1-0.5c-0.3-0.3-0.5-1-0.5-2.1V118.9z"/>
<path class="st0" d="M476.1,133.8c-1.1,0-1.8-0.2-2.1-0.5c-0.3-0.3-0.5-1-0.5-2.1v-12.3c0-1.1,0.2-1.8,0.5-2.1
	c0.3-0.3,1-0.5,2.1-0.5h2.2V56.1h-2.2c-1.1,0-1.8-0.2-2.1-0.5c-0.3-0.3-0.5-1-0.5-2.1V41.3c0-1.1,0.2-1.8,0.5-2.1
	c0.3-0.3,1-0.5,2.1-0.5h76c1.1,0,1.8,0.2,2.1,0.5c0.3,0.3,0.5,1,0.5,2.1v20c0,1.1-0.2,1.8-0.5,2.1c-0.3,0.3-1,0.5-2.1,0.5h-12.3
	c-1.1,0-1.8-0.2-2.1-0.5c-0.3-0.3-0.5-1-0.5-2.1V59h-32.2v16.2h35.3c1.1,0,1.8,0.2,2.1,0.5c0.3,0.3,0.5,1,0.5,2.1V93
	c0,1.1-0.2,1.7-0.5,2.1c-0.3,0.3-1,0.5-2.1,0.5h-35.3v17.8H538v-2.2c0-1.1,0.2-1.8,0.5-2.1c0.3-0.3,1-0.5,2.1-0.5h12.3
	c1.1,0,1.8,0.2,2.1,0.5c0.3,0.3,0.5,1,0.5,2.1v20c0,1.1-0.2,1.8-0.5,2.1c-0.3,0.3-1,0.5-2.1,0.5H476.1z"/>
<path class="st0" d="M572.1,45.1c-5.5,0-9.9-4.5-9.9-9.9c0-5.5,4.5-9.9,9.9-9.9c5.5,0,9.9,4.5,9.9,9.9
	C582,40.6,577.6,45.1,572.1,45.1 M572.1,27.2c-4.4,0-7.9,3.6-7.9,7.9c0,4.4,3.6,7.9,7.9,7.9c4.4,0,7.9-3.6,7.9-7.9
	C580,30.7,576.5,27.2,572.1,27.2"/>
<path class="st0" d="M568.9,37.3c0-0.1,0-0.1,0-0.2c0,0,0.1,0,0.2,0h0.2v-4.4h-0.2c-0.1,0-0.1,0-0.2,0c0,0,0-0.1,0-0.2v-0.9
	c0-0.1,0-0.1,0-0.2c0,0,0.1,0,0.2,0h3.8c0.3,0,0.6,0,0.9,0.1c0.3,0.1,0.5,0.2,0.7,0.4c0.2,0.2,0.3,0.4,0.4,0.6
	c0.1,0.2,0.1,0.5,0.1,0.8c0,0.3-0.1,0.5-0.2,0.7c-0.1,0.2-0.2,0.4-0.4,0.5c-0.1,0.1-0.3,0.3-0.4,0.3c-0.2,0.1-0.3,0.1-0.4,0.2
	c0.2,0,0.3,0,0.5,0.1c0.1,0,0.3,0.1,0.4,0.2c0.1,0.1,0.2,0.2,0.2,0.3c0.1,0.1,0.1,0.3,0.1,0.5v0.8h0.2c0.1,0,0.1,0,0.2,0
	c0,0,0,0.1,0,0.2v0.9c0,0.1,0,0.1,0,0.2c0,0-0.1,0-0.2,0h-1.9c-0.1,0-0.1,0-0.1,0c0,0,0-0.1,0-0.2v-1c0-0.2,0-0.3,0-0.5
	c0-0.1-0.1-0.3-0.2-0.4c-0.1-0.1-0.2-0.2-0.3-0.2c-0.1-0.1-0.3-0.1-0.6-0.1h-0.6v1.1h0.2c0.1,0,0.1,0,0.2,0c0,0,0,0.1,0,0.2v0.9
	c0,0.1,0,0.1,0,0.2c0,0-0.1,0-0.2,0h-2.4c-0.1,0-0.1,0-0.2,0c0,0,0-0.1,0-0.2V37.3z M573.1,33.8c0-0.3-0.1-0.5-0.3-0.6
	c-0.2-0.1-0.4-0.2-0.6-0.2h-1v1.6h0.7c0.1,0,0.3,0,0.4,0c0.1,0,0.3-0.1,0.4-0.1c0.1-0.1,0.2-0.2,0.3-0.3
	C573,34.1,573.1,33.9,573.1,33.8"/>
<g>
	<polygon class="st1" points="268.1,18.8 251.2,18.8 251.2,4 268.1,13.6 	"/>
	<polygon class="st1" points="300.5,18.8 317.4,18.8 317.4,4 300.5,13.6 	"/>
	<path class="st0" d="M317.4,4v14.1l-16.8-0.8V2.4c0-1.2-0.9-2.1-2.1-2.1h-27.9c-1.3,0-2.4,1.1-2.4,2.4v14.5l-16.9,0.8V4l-23.5,2
		c-2,0-3.7,1.6-3.7,3.7l0,109.4c0,2.2,1.2,4.2,3.1,5.3l55.6,31.5c2.1,1.2,4.7,1.2,6.8-0.1l52-31.4c1.8-1.1,3-3.1,3-5.2V9.7
		c0-2-1.6-3.7-3.7-3.7L317.4,4z M333.3,68.3l-65.7,40.2l19.4,11.2l21.9-13.2v-8.3l24.5-15.4l0,31.1c0,1.3-0.7,2.5-1.7,3.1
		l-42.1,25.8c-1.8,1.1-4,1.1-5.8,0.1l-46.5-26.2c-1.1-0.6-1.9-1.9-1.9-3.2v-7.8c0-0.8,0.4-1.6,1.1-2l65.3-40h-41.8l0,10.2
		l-24.5,15.4l0-41h0v-11c0-1.8,1.5-3.3,3.3-3.3l19.1-0.6c0.3,0,0.6,0.3,0.6,0.6v9.4c0,0.5,0.4,1,1,1h11.9c0.5,0,1-0.4,1-1V31.5
		c0-0.5,0.4-0.9,0.9-0.9h22.3c0.5,0,0.9,0.4,0.9,0.9v11.9c0,0.5,0.4,1,1,1h12c0.5,0,1-0.4,1-1v-9.3c0-0.4,0.3-0.6,0.6-0.6L330,34
		c1.8,0,3.3,1.5,3.3,3.3v7.1h0V68.3z"/>
</g>
<g class="st2">
	<path class="st0" d="M154.3,200.4l-5.4-17.5h-0.1c0.2,3.6,0.3,5.9,0.3,7.1v10.4h-4.2V178h6.4l5.3,17.1h0.1l5.6-17.1h6.4v22.3h-4.4
		v-10.6c0-0.5,0-1.1,0-1.7c0-0.7,0.1-2.4,0.2-5.2h-0.1l-5.8,17.5H154.3z"/>
	<path class="st0" d="M210.2,189.2c0,3.7-0.9,6.5-2.7,8.5c-1.8,2-4.5,3-7.9,3c-3.4,0-6-1-7.9-3c-1.8-2-2.7-4.8-2.7-8.6
		c0-3.7,0.9-6.6,2.8-8.5c1.8-2,4.5-2.9,7.9-2.9s6.1,1,7.9,3C209.3,182.6,210.2,185.5,210.2,189.2z M193.9,189.2
		c0,2.5,0.5,4.4,1.4,5.6c0.9,1.3,2.4,1.9,4.2,1.9c3.8,0,5.7-2.5,5.7-7.5c0-5-1.9-7.5-5.6-7.5c-1.9,0-3.3,0.6-4.3,1.9
		C194.4,184.8,193.9,186.7,193.9,189.2z"/>
	<path class="st0" d="M235.2,191.8v8.6h-4.7V178h6.5c3,0,5.3,0.6,6.7,1.7c1.5,1.1,2.2,2.8,2.2,5c0,1.3-0.4,2.5-1.1,3.5
		c-0.7,1-1.7,1.8-3.1,2.4c3.4,5,5.5,8.3,6.6,9.7H243l-5.3-8.6H235.2z M235.2,187.9h1.5c1.5,0,2.6-0.2,3.3-0.7
		c0.7-0.5,1.1-1.3,1.1-2.4c0-1.1-0.4-1.8-1.1-2.3c-0.7-0.4-1.9-0.7-3.4-0.7h-1.4V187.9z"/>
	<path class="st0" d="M275.4,200.4h-4.7V182h-6.1V178h16.9v3.9h-6.1V200.4z"/>
	<path class="st0" d="M309,187.8h8.9v11.6c-1.4,0.5-2.8,0.8-4.1,1c-1.3,0.2-2.6,0.3-3.9,0.3c-3.4,0-5.9-1-7.7-3
		c-1.8-2-2.7-4.8-2.7-8.5c0-3.6,1-6.4,3.1-8.4c2.1-2,4.9-3,8.6-3c2.3,0,4.5,0.5,6.6,1.4l-1.6,3.8c-1.6-0.8-3.3-1.2-5.1-1.2
		c-2,0-3.7,0.7-4.9,2.1c-1.2,1.4-1.8,3.2-1.8,5.5c0,2.4,0.5,4.3,1.5,5.6c1,1.3,2.4,1.9,4.3,1.9c1,0,2-0.1,3-0.3v-4.7H309V187.8z"/>
	<path class="st0" d="M352.4,200.4l-1.6-5.3h-8.1l-1.6,5.3H336l7.9-22.4h5.8l7.9,22.4H352.4z M349.7,191.1c-1.5-4.8-2.3-7.5-2.5-8.2
		c-0.2-0.6-0.3-1.1-0.4-1.5c-0.3,1.3-1.3,4.5-2.9,9.7H349.7z"/>
	<path class="st0" d="M384.5,187.8h8.9v11.6c-1.4,0.5-2.8,0.8-4.1,1c-1.3,0.2-2.6,0.3-3.9,0.3c-3.4,0-5.9-1-7.7-3
		c-1.8-2-2.7-4.8-2.7-8.5c0-3.6,1-6.4,3.1-8.4c2.1-2,4.9-3,8.6-3c2.3,0,4.5,0.5,6.6,1.4l-1.6,3.8c-1.6-0.8-3.3-1.2-5.1-1.2
		c-2,0-3.7,0.7-4.9,2.1s-1.8,3.2-1.8,5.5c0,2.4,0.5,4.3,1.5,5.6c1,1.3,2.4,1.9,4.3,1.9c1,0,2-0.1,3-0.3v-4.7h-4.2V187.8z"/>
	<path class="st0" d="M427.1,200.4h-12.9V178h12.9v3.9H419v4.9h7.6v3.9H419v5.8h8.1V200.4z"/>
</g>
</svg>
