<?xml version="1.0" encoding="utf-8"?>
<!-- Generator: Adobe Illustrator 22.0.0, SVG Export Plug-In . SVG Version: 6.00 Build 0)  -->
<svg version="1.1" id="Layer_1" xmlns="http://www.w3.org/2000/svg" xmlns:xlink="http://www.w3.org/1999/xlink" x="0px" y="0px"
	 viewBox="0 0 250.3 245.6" style="enable-background:new 0 0 250.3 245.6;" xml:space="preserve">
<style type="text/css">
	.st0{opacity:0.5;fill:url(#SVGID_1_);}
	.st1{opacity:0.5;fill:url(#SVGID_2_);}
	.st2{fill:url(#SVGID_3_);}
</style>
<linearGradient id="SVGID_1_" gradientUnits="userSpaceOnUse" x1="97.7379" y1="70.0566" x2="112.406" y2="70.0566">
	<stop  offset="0" style="stop-color:#695CF6"/>
	<stop  offset="1" style="stop-color:#4621BD"/>
</linearGradient>
<polygon class="st0" points="112.4,76.5 97.7,76.5 97.7,63.6 112.4,71.9 "/>
<linearGradient id="SVGID_2_" gradientUnits="userSpaceOnUse" x1="140.464" y1="70.0566" x2="155.1321" y2="70.0566">
	<stop  offset="0" style="stop-color:#695CF6"/>
	<stop  offset="1" style="stop-color:#4621BD"/>
</linearGradient>
<polygon class="st1" points="140.5,76.5 155.1,76.5 155.1,63.6 140.5,71.9 "/>
<g>
	<g>
		<linearGradient id="SVGID_3_" gradientUnits="userSpaceOnUse" x1="68.3055" y1="29.4367" x2="202.9044" y2="240.031">
			<stop  offset="0" style="stop-color:#695CF6"/>
			<stop  offset="1" style="stop-color:#4621BD"/>
		</linearGradient>
		<path class="st2" d="M76.9,168.1l48.2,27.4c1.8,1,4.1,1,5.9-0.1l45.1-27.2c1.6-1,2.6-2.7,2.6-4.5v-95c0-1.8-1.4-3.2-3.2-3.2
			l-20.4-1.8v12.2l-14.6-0.7V62.2c0-1-0.8-1.8-1.8-1.8h-24.2c-1.2,0-2.1,0.9-2.1,2.1v12.6l-14.7,0.7V63.6l-20.4,1.8
			c-1.8,0-3.2,1.4-3.2,3.2l0,94.9C74.2,165.4,75.2,167.1,76.9,168.1z M83.9,151.8c0-0.7,0.4-1.4,1-1.7l56.6-34.7h-36.3l0,8.8
			L84,137.7l0-35.6h0v-9.6c0-1.6,1.3-2.9,2.9-2.9l16.5-0.5c0.3,0,0.6,0.2,0.6,0.5v8.1c0,0.5,0.4,0.9,0.9,0.9h10.3
			c0.5,0,0.9-0.4,0.9-0.9V87.5c0-0.4,0.4-0.8,0.8-0.8h19.3c0.4,0,0.8,0.4,0.8,0.8v10.3c0,0.5,0.4,0.9,0.9,0.9h10.4
			c0.5,0,0.9-0.4,0.9-0.9v-8.1c0-0.3,0.3-0.5,0.6-0.5l16.5,0.5c1.6,0,2.9,1.3,2.9,2.9v6.1h0v20.7l-57,34.9l16.8,9.7l19-11.5v-7.2
			l21.2-13.4l0,27c0,1.1-0.6,2.1-1.5,2.7L130.9,184c-1.5,0.9-3.5,1-5,0.1l-40.3-22.7c-1-0.6-1.6-1.6-1.6-2.8V151.8z M30.6,174.4
			c0.7,0.3,1.5,0.3,2.4,0.1c1.3-0.4,2.1-1.2,2.4-2.4c0.3-1.2,0.1-3-0.6-5.4l-1.5-5.1l-14.8,4.3l1.8,6.2c0.5,1.9,1.4,3.2,2.4,4.1
			c1.1,0.9,2.3,1.1,3.6,0.7c1-0.3,1.6-0.7,2.1-1.4c0.4-0.6,0.6-1.5,0.5-2.6l0.1,0C29.4,173.6,29.9,174.1,30.6,174.4z M25.6,173.2
			c-0.7,0.2-1.3,0.1-1.7-0.2c-0.5-0.4-0.8-1-1.1-2l-0.7-2.3l3.9-1.1l0.6,2.2C27.1,171.6,26.8,172.8,25.6,173.2z M28.4,166.8l3.3-1
			l0.5,1.8c0.3,1,0.4,1.8,0.3,2.3c-0.1,0.5-0.4,0.9-1,1.1c-0.6,0.2-1.1,0.1-1.5-0.3c-0.4-0.3-0.7-1-1-1.9L28.4,166.8z M45.8,193.2
			c0.4-1.9-0.1-4-1.5-6.2c-1.4-2.2-3.1-3.6-5-4c-1.9-0.5-3.9,0-6.1,1.4c-2.2,1.4-3.4,3-3.8,5c-0.4,1.9,0.1,4,1.5,6.2
			c1.4,2.2,3.1,3.6,5,4c1.9,0.4,3.9,0,6.1-1.4C44.1,196.8,45.4,195.2,45.8,193.2z M39.9,195c-2.9,1.9-5.2,1.6-6.7-0.9
			c-0.8-1.2-1-2.4-0.7-3.5c0.3-1.1,1.2-2.1,2.7-3c1.5-0.9,2.7-1.3,3.9-1.2c1.1,0.1,2.1,0.8,2.9,2.1C43.5,190.9,42.8,193.1,39.9,195z
			 M57.5,203.4l-3.7-3.4l-10.5,11.3l2.7,2.5l4-4.4l1.4,1.3l-1,7.1l3,2.7c0.1-1.3,0.4-4.1,0.8-8.4c1,0.4,2,0.5,2.9,0.4
			c0.9-0.1,1.6-0.5,2.3-1.2c1.1-1.1,1.4-2.4,1.1-3.7C60.2,206.4,59.2,204.9,57.5,203.4z M56.7,209c-0.5,0.5-1.1,0.8-1.7,0.6
			c-0.6-0.1-1.4-0.6-2.2-1.3l-0.9-0.8l2.8-3.1l0.8,0.7c0.9,0.8,1.4,1.5,1.6,2.1C57.3,207.9,57.2,208.4,56.7,209z M73.9,215.6
			l-4.3-2.5l-7.7,13.3l3.2,1.8l3-5.1l1.7,1l0.6,7.2l3.5,2c-0.2-1.3-0.5-4.1-1-8.4c1.1,0.2,2,0.1,2.9-0.3c0.8-0.3,1.5-0.9,1.9-1.7
			c0.8-1.3,0.9-2.6,0.3-3.9C77.2,218,75.9,216.8,73.9,215.6z M74.3,221.3c-0.4,0.6-0.9,1-1.5,1c-0.6,0-1.5-0.3-2.5-0.8l-1-0.6
			l2.1-3.6l1,0.6c1,0.6,1.7,1.2,2,1.7C74.7,220.1,74.7,220.7,74.3,221.3z M94.9,224.6c-2.5-0.8-4.7-0.7-6.4,0.1
			c-1.8,0.9-3,2.5-3.8,5c-0.8,2.5-0.7,4.5,0.3,6.3c0.9,1.7,2.7,3,5.2,3.8c2.5,0.8,4.6,0.7,6.4-0.2c1.8-0.9,3-2.6,3.8-5
			c0.8-2.4,0.7-4.5-0.2-6.2C99.2,226.7,97.5,225.4,94.9,224.6z M96.7,233.5c-1,3.3-2.9,4.5-5.7,3.7c-1.4-0.4-2.3-1.2-2.7-2.2
			c-0.4-1-0.4-2.4,0.1-4c0.5-1.6,1.3-2.8,2.2-3.4c1-0.6,2.1-0.7,3.5-0.3C96.9,228.1,97.7,230.2,96.7,233.5z M125.5,238.2
			c-0.2,0.5-0.4,1.1-0.6,2c-0.2,0.8-0.4,1.5-0.5,2c-0.1-0.6-0.1-1.3-0.3-2.1c-0.1-0.8-0.2-1.4-0.3-1.8l-2-8.8l-3.4-0.2l-3,8.5
			c-0.2,0.5-0.4,1.1-0.6,1.9c-0.2,0.8-0.4,1.4-0.4,1.8c-0.1-1.1-0.3-2.5-0.6-4.1l-1.7-8.5l-3.6-0.2l3.5,15.7l4.1,0.2l2.8-7.9
			c0.1-0.4,0.3-0.9,0.5-1.8c0.2-0.8,0.4-1.4,0.5-1.8c0,0.3,0.1,0.9,0.3,1.8c0.2,0.9,0.3,1.5,0.3,1.8l1.9,8.2l4.1,0.2l5.3-15.1
			l-3.6-0.2L125.5,238.2z M161.2,232.9c-0.8-0.5-2-0.9-3.7-1.1c-1.3-0.2-2.1-0.3-2.5-0.4c-0.4-0.1-0.6-0.2-0.8-0.4
			c-0.2-0.2-0.3-0.4-0.4-0.7c-0.1-0.4,0-0.9,0.2-1.2c0.3-0.4,0.8-0.7,1.4-0.8c0.6-0.2,1.1-0.2,1.8-0.3s1.4,0,2.4,0.1l0.5-2.8
			c-0.9-0.1-1.8-0.1-2.7-0.1c-0.8,0-1.7,0.2-2.5,0.4c-1.8,0.5-3,1.2-3.8,2.3c-0.8,1-1,2.2-0.6,3.5c0.2,0.7,0.5,1.3,1,1.7
			c0.4,0.4,1,0.8,1.6,1c0.6,0.3,1.5,0.5,2.6,0.6c1.2,0.2,2,0.3,2.4,0.4c0.4,0.1,0.7,0.3,1,0.4c0.2,0.2,0.4,0.4,0.5,0.7
			c0.1,0.5,0,1-0.3,1.3c-0.3,0.4-0.9,0.7-1.7,0.9c-0.6,0.2-1.4,0.3-2.2,0.3c-0.8,0-1.9,0-3.1-0.2l0.8,2.9c1.5,0.2,3.2,0.1,4.9-0.4
			c1.9-0.5,3.3-1.3,4.2-2.4c0.9-1.1,1.1-2.3,0.7-3.6C162.4,234.2,161.9,233.4,161.2,232.9z M179,215.6l1.8,12.4l-0.1,0l-9.2-8.5
			l-4.4,2.3l7.3,13.6l2.9-1.5l-3.4-6.3c-0.4-0.7-1.2-2.1-2.5-4.2l0.1,0l9.4,8.7l2.9-1.6l-1.8-12.7l0.1,0c0.8,1.8,1.4,2.8,1.6,3.2
			c0.2,0.4,0.4,0.8,0.5,1.1l3.4,6.4l3-1.6l-7.3-13.6L179,215.6z M193.1,205.2l6.1,15.5l2.9-2.7l-1.6-3.5l4.6-4.3l3.4,1.8l2.9-2.7
			l-15-7.2L193.1,205.2z M197.3,205.9c0.4,0.2,2.2,1.2,5.3,2.8l-3.3,3c-1.5-3.4-2.5-5.6-2.9-6.4
			C196.6,205.5,196.9,205.7,197.3,205.9z M217,187.4c-0.3-0.9-0.8-1.5-1.6-2c-1.3-0.9-2.6-1-3.8-0.5c-1.3,0.5-2.5,1.8-3.8,3.7
			l-2.7,4.2l12.9,8.5l2-3l-5-3.2l1.1-1.6l7.2-0.2l2.2-3.4c-1.3,0.1-4.1,0.3-8.4,0.5C217.3,189.2,217.2,188.2,217,187.4z
			 M213.4,192.5l-0.6,1l-3.5-2.3l0.6-0.9c0.6-1,1.2-1.6,1.8-1.9c0.6-0.3,1.2-0.2,1.8,0.2c0.6,0.4,0.9,0.9,0.9,1.6
			C214.3,190.7,214,191.5,213.4,192.5z M221.4,165.3l-2.6-0.9l-4.2,12.3l2.6,0.9l1.5-4.4l12,4.1l1.2-3.4l-12-4.1L221.4,165.3z
			 M233.6,160.2c-0.6-0.1-1,0-1.4,0.3c-0.4,0.3-0.6,0.8-0.7,1.4c-0.1,0.7-0.1,1.2,0.2,1.6c0.2,0.4,0.6,0.7,1.2,0.8
			c0.6,0.1,1,0,1.4-0.3c0.4-0.3,0.6-0.8,0.7-1.4c0.1-0.6,0-1.2-0.2-1.6C234.6,160.6,234.2,160.3,233.6,160.2z M47,49.1
			c2.1-2.1,3.3-4.2,3.5-6.3c0.2-2.1-0.7-4.1-2.5-6c-1.7-1.8-3.6-2.6-5.7-2.5c-2.1,0.1-4.1,1.1-6.1,3L32.3,41l11.2,11.5L47,49.1z
			 M38.2,39.1c2.3-2.3,4.7-2.1,7.1,0.3c2.5,2.5,2.4,5,0,7.4L44.2,48l-7.3-7.5L38.2,39.1z M65.5,34.1l-3.2-5.2l1.6-1l6.7,3.1l3.4-2.1
			c-1.2-0.5-3.9-1.6-7.9-3.3c0.6-0.9,1-1.8,1.1-2.7c0.1-0.9-0.1-1.8-0.6-2.6c-0.8-1.4-1.9-2.1-3.3-2.2c-1.4-0.1-3,0.5-5,1.7
			l-4.2,2.6L62.5,36L65.5,34.1z M60.9,26.5l-2.3-3.7l0.9-0.6c1-0.6,1.8-0.9,2.4-0.9c0.6,0,1.2,0.3,1.6,0.9c0.4,0.7,0.5,1.3,0.2,1.9
			c-0.3,0.6-0.9,1.2-1.9,1.8L60.9,26.5z M92.1,21.6l-1-2.6l-5.8,2.1l-1.4-3.9l5.4-2l-1-2.6l-5.4,2l-1.2-3.3l5.8-2.1l-1-2.6l-9.2,3.4
			L82.9,25L92.1,21.6z M105.2,14.5l6.1-1l1.8,3.6l3.8-0.6l-8.4-15l-4.4,0.7L100.7,19l3.8-0.6L105.2,14.5z M106.7,4.3
			c0.1,0.2,0.3,0.6,0.5,1c0.2,0.4,1.1,2.3,2.8,5.5l-4.4,0.7C106.2,7.7,106.6,5.3,106.7,4.3z M130.3,8.8c0.1-0.9,0.1-2.6,0.2-5.1
			l0.1,0l3.1,12.9l3.3,0.3l5.3-12.2l0.1,0c-0.2,2-0.4,3.2-0.4,3.7c0,0.5-0.1,0.9-0.1,1.2l-0.6,7.6l3.3,0.3l1.2-16L140.9,1l-5.2,11.9
			l-0.1,0l-3.1-12.5L127.7,0l-1.2,16l3.2,0.2L130.3,8.8z M174.8,25.5c1.3-0.3,2.3-1.2,2.9-2.5c0.4-1,0.5-1.8,0.3-2.6
			c-0.2-0.8-0.8-1.4-1.7-2.1l0-0.1c0.8,0.2,1.5,0.1,2.2-0.3c0.7-0.4,1.2-1,1.6-1.9c0.5-1.3,0.4-2.5-0.3-3.5c-0.8-1-2.3-2-4.5-2.9
			l-4.9-2l-6.1,14.9l5.9,2.4C171.9,25.6,173.4,25.8,174.8,25.5z M172.5,11.6l1.8,0.7c1,0.4,1.6,0.8,1.9,1.2c0.3,0.4,0.4,0.9,0.2,1.5
			c-0.2,0.6-0.6,1-1.1,1.1c-0.5,0.1-1.2,0-2.1-0.4l-1.9-0.8L172.5,11.6z M170.2,17.4l2.1,0.8c1.9,0.8,2.5,1.8,2,3
			c-0.3,0.7-0.7,1.1-1.3,1.3c-0.6,0.2-1.3,0-2.2-0.3l-2.2-0.9L170.2,17.4z M197.1,21.1l-3-1.9l-8.6,13.5l3,1.9L197.1,21.1z
			 M205.5,48.5c0.8,0.6,1.7,1.1,2.7,1.6l5.7-6.1l-4.9-4.6l-1.9,2.1l2.3,2.2l-2.3,2.4c-0.7-0.4-1.3-0.9-1.8-1.4
			c-1.1-1-1.5-2.1-1.5-3.3c0.1-1.2,0.7-2.4,1.9-3.7c1.1-1.2,2.4-1.9,3.8-1.9c1.4-0.1,2.6,0.4,3.7,1.5c1,0.9,1.7,2,2.2,3.3l2.7-1.2
			c-0.7-1.6-1.7-3-3-4.2c-2-1.9-4.1-2.9-6.2-2.9c-2.1,0-4.1,0.9-5.9,2.8c-1.8,1.9-2.7,3.9-2.7,5.9c0,2,1,3.8,2.8,5.6
			C203.9,47.3,204.7,47.9,205.5,48.5z M213.5,52.9c-0.5-0.1-0.9,0.1-1.4,0.5c-0.5,0.4-0.7,0.8-0.7,1.3c0,0.5,0.2,1,0.6,1.5
			c0.4,0.5,0.8,0.8,1.3,0.8c0.5,0.1,0.9-0.1,1.4-0.5c0.5-0.4,0.7-0.8,0.7-1.3c0-0.5-0.2-1-0.6-1.5C214.4,53.3,214,53,213.5,52.9z
			 M221.2,108c0.2-0.2,0.4-0.4,0.5-0.6c0,0.5,0,1,0,1.5v4.6h2.4V105h-2.1l-3,2.4l1.2,1.5L221.2,108z M229.4,110.7
			c0.3,0,0.6,0,0.8-0.1s0.4-0.2,0.5-0.3c0.1-0.1,0.3-0.3,0.5-0.6h0.1c0,0.7-0.3,1.3-0.7,1.6c-0.5,0.3-1.1,0.5-1.9,0.5
			c-0.3,0-0.7,0-1-0.1v1.8c0.3,0,0.7,0.1,1.2,0.1c1.6,0,2.8-0.4,3.5-1.1s1.1-2,1.1-3.7c0-1.3-0.3-2.3-0.9-3c-0.6-0.7-1.4-1-2.4-1
			c-0.9,0-1.7,0.3-2.2,0.8c-0.5,0.5-0.8,1.3-0.8,2.2c0,0.9,0.2,1.6,0.6,2.1C228.1,110.5,228.7,110.7,229.4,110.7z M229.5,107
			c0.2-0.2,0.4-0.3,0.6-0.3c0.3,0,0.5,0.1,0.7,0.4c0.2,0.3,0.3,0.6,0.3,0.9c0,0.3-0.1,0.5-0.3,0.7c-0.2,0.2-0.4,0.3-0.7,0.3
			c-0.3,0-0.5-0.1-0.6-0.3c-0.1-0.2-0.2-0.4-0.2-0.8C229.3,107.5,229.4,107.2,229.5,107z M238.4,104.9c-0.9,0-1.7,0.3-2.2,0.8
			c-0.5,0.5-0.8,1.3-0.8,2.2c0,0.9,0.2,1.6,0.6,2.1c0.4,0.5,1,0.7,1.7,0.7c0.3,0,0.6,0,0.8-0.1s0.4-0.2,0.5-0.3s0.3-0.3,0.5-0.6h0.1
			c0,0.7-0.3,1.3-0.7,1.6c-0.5,0.3-1.1,0.5-1.9,0.5c-0.3,0-0.7,0-1-0.1v1.8c0.3,0,0.7,0.1,1.2,0.1c1.6,0,2.8-0.4,3.5-1.1
			c0.7-0.8,1.1-2,1.1-3.7c0-1.3-0.3-2.3-0.9-3C240.2,105.2,239.4,104.9,238.4,104.9z M239.1,108.7c-0.2,0.2-0.4,0.3-0.7,0.3
			c-0.3,0-0.5-0.1-0.6-0.3c-0.1-0.2-0.2-0.4-0.2-0.8c0-0.4,0.1-0.7,0.2-0.9s0.4-0.3,0.6-0.3c0.3,0,0.5,0.1,0.7,0.4
			c0.2,0.3,0.3,0.6,0.3,0.9C239.4,108.3,239.3,108.5,239.1,108.7z M249.1,105.9c-0.6-0.7-1.4-1-2.4-1c-0.9,0-1.7,0.3-2.2,0.8
			c-0.5,0.5-0.8,1.3-0.8,2.2c0,0.9,0.2,1.6,0.6,2.1c0.4,0.5,1,0.7,1.7,0.7c0.3,0,0.6,0,0.8-0.1s0.4-0.2,0.5-0.3s0.3-0.3,0.5-0.6h0.1
			c0,0.7-0.3,1.3-0.7,1.6c-0.5,0.3-1.1,0.5-1.9,0.5c-0.3,0-0.7,0-1-0.1v1.8c0.3,0,0.7,0.1,1.2,0.1c1.6,0,2.8-0.4,3.5-1.1
			c0.7-0.8,1.1-2,1.1-3.7C249.9,107.6,249.6,106.6,249.1,105.9z M247.3,108.7c-0.2,0.2-0.4,0.3-0.7,0.3c-0.3,0-0.5-0.1-0.6-0.3
			c-0.1-0.2-0.2-0.4-0.2-0.8c0-0.4,0.1-0.7,0.2-0.9c0.2-0.2,0.4-0.3,0.6-0.3c0.3,0,0.5,0.1,0.7,0.4c0.2,0.3,0.3,0.6,0.3,0.9
			C247.6,108.3,247.5,108.5,247.3,108.7z M0,113.5h5.1v-1.9H2.3V110h2.6v-1.9H2.3v-1.4h2.8V105H0V113.5z M12.4,106.7
			c0.6,0,1.3,0.2,2.1,0.6l0.7-1.8c-0.9-0.4-1.8-0.6-2.7-0.6c-1,0-1.8,0.2-2.4,0.7c-0.6,0.4-0.9,1.1-0.9,1.9c0,0.4,0.1,0.8,0.2,1.1
			c0.1,0.3,0.3,0.6,0.6,0.8c0.3,0.2,0.7,0.5,1.3,0.7c0.6,0.3,1,0.5,1.1,0.6c0.1,0.1,0.2,0.2,0.3,0.3c0.1,0.1,0.1,0.2,0.1,0.3
			c0,0.2-0.1,0.3-0.2,0.5c-0.2,0.1-0.4,0.2-0.8,0.2c-0.4,0-0.8-0.1-1.3-0.2c-0.5-0.1-0.9-0.3-1.4-0.5v2.1c0.4,0.2,0.8,0.3,1.2,0.4
			c0.4,0.1,0.9,0.1,1.4,0.1c0.7,0,1.3-0.1,1.8-0.3c0.5-0.2,0.9-0.6,1.2-1c0.3-0.4,0.4-0.9,0.4-1.4c0-0.6-0.1-1.1-0.4-1.4
			c-0.3-0.4-0.8-0.7-1.5-1.1c-0.8-0.4-1.2-0.6-1.4-0.7c-0.2-0.1-0.3-0.3-0.3-0.5c0-0.2,0.1-0.3,0.2-0.4S12.1,106.7,12.4,106.7z
			 M21.1,113.5h2.3v-6.7h2.1V105H19v1.9h2.1V113.5z M30.5,113.7c0.4,0,0.7-0.1,0.9-0.3c0.2-0.2,0.3-0.5,0.3-0.8
			c0-0.4-0.1-0.6-0.3-0.8c-0.2-0.2-0.5-0.3-0.9-0.3c-0.4,0-0.7,0.1-0.9,0.3c-0.2,0.2-0.3,0.5-0.3,0.8c0,0.4,0.1,0.6,0.3,0.8
			C29.8,113.6,30.2,113.7,30.5,113.7z"/>
	</g>
</g>
</svg>
